:FULLY-SPECIFIED
:FORCE-ALL-JOINTS-BE-3DOF
:DEGREES
130
root 9.07471 16.1104 -19.115 5.75103 6.75638 4.44215
lfemur 13.8771 1.72614 -25.5267
ltibia 8.29643 -0 0
lfoot -12.9172 1.89774 0.246824
ltoes -7.43072 0 0
rfemur -39.9861 10.1543 7.91675
rtibia 26.59 -0 0
rfoot -22.6022 -11.167 0.170353
rtoes -20.5933 0 0
lowerback -7.84547 -3.43473 -5.54111
upperback -1.25159 -4.18149 2.30628
thorax 3.6862 -2.17172 5.02366
lowerneck -19.4091 -5.64387 -13.4573
upperneck 20.2518 -6.64859 11.5934
head 10.5829 -2.78823 5.43774
lclavicle -2.54444e-14 2.3059e-14 0
lhumerus -31.8819 -24.2438 96.8331
lradius 38.6591 -0 0
lwrist 9.70071 0 0
lhand -9.59806 -23.4912 0.0636653
lfingers 7.12502 -0 0
lthumb 16.368 5.80077 0.0500989
rclavicle -2.54444e-14 2.3059e-14 0
rhumerus -46.804 7.31659 -82.7394
rradius 33.8418 -0 0
rwrist -18.3257 0 0
rhand -29.5152 -23.7707 -0.00514557
rfingers 7.12502 -0 0
rthumb -2.84922 -53.7309 -0.00499144
131
root 9.05028 16.1263 -18.9624 5.80639 6.82594 4.28331
lfemur 13.2373 1.84885 -25.1775
ltibia 9.67917 -0 0
lfoot -12.4991 2.21861 0.279789
ltoes -7.60255 0 0
rfemur -39.5815 9.95387 8.41274
rtibia 26.6777 -0 0
rfoot -22.3319 -10.8241 0.193093
rtoes -20.4256 0 0
lowerback -7.75453 -3.37849 -5.38991
upperback -1.26348 -4.12442 2.34027
thorax 3.6103 -2.13972 4.98325
lowerneck -19.3877 -5.68884 -13.4888
upperneck 20.0921 -6.71397 11.6787
head 10.5373 -2.81068 5.46103
lclavicle -2.54444e-14 2.3059e-14 0
lhumerus -32.2866 -23.9171 96.8847
lradius 38.3157 -0 0
lwrist 9.54788 0 0
lhand -9.34757 -23.3527 0.0721582
lfingers 7.12502 -0 0
lthumb 16.6088 5.9142 0.0567816
rclavicle -2.54444e-14 2.3059e-14 0
rhumerus -46.7579 7.3829 -82.709
rradius 33.8727 -0 0
rwrist -18.3455 0 0
rhand -29.481 -23.8528 -0.00583168
rfingers 7.12502 -0 0
rthumb -2.8162 -53.8134 -0.005657
132
root 9.02585 16.1423 -18.8099 5.86157 6.89566 4.12452
lfemur 12.5982 1.97544 -24.8296
ltibia 11.0619 -0 0
lfoot -12.0808 2.53972 0.310412
ltoes -7.77437 0 0
rfemur -39.1788 9.75005 8.90698
rtibia 26.7654 -0 0
rfoot -22.0614 -10.481 0.214214
rtoes -20.2578 0 0
lowerback -7.66344 -3.32248 -5.23864
upperback -1.27533 -4.06734 2.37424
thorax 3.53438 -2.10777 4.9428
lowerneck -19.3663 -5.7338 -13.5202
upperneck 19.9322 -6.77911 11.7642
head 10.4918 -2.8331 5.48433
lclavicle -2.54444e-14 2.3059e-14 0
lhumerus -32.6899 -23.59 96.9336
lradius 37.9722 -0 0
lwrist 9.39505 0 0
lhand -9.09707 -23.2141 0.0800454
lfingers 7.12502 -0 0
lthumb 16.8495 6.02766 0.0629876
rclavicle -2.54444e-14 2.3059e-14 0
rhumerus -46.7117 7.44919 -82.6784
rradius 33.9036 -0 0
rwrist -18.3652 0 0
rhand -29.4468 -23.9349 -0.00646879
rfingers 7.12502 -0 0
rthumb -2.78319 -53.8959 -0.00627502
133
root 9.00142 16.1583 -18.6573 5.91655 6.96552 3.96577
lfemur 11.9598 2.10591 -24.4831
ltibia 12.4447 -0 0
lfoot -11.6623 2.86104 0.338689
ltoes -7.9462 0 0
rfemur -38.7783 9.54282 9.39945
rtibia 26.8531 -0 0
rfoot -21.7908 -10.1378 0.233716
rtoes -20.0901 0 0
lowerback -7.57221 -3.26672 -5.08728
upperback -1.28716 -4.01025 2.4082
thorax 3.45844 -2.07587 4.9023
lowerneck -19.3448 -5.77875 -13.5517
upperneck 19.7723 -6.84402 11.8499
head 10.4462 -2.85551 5.50765
lclavicle -2.54444e-14 2.3059e-14 0
lhumerus -33.092 -23.2627 96.98
lradius 37.6287 -0 0
lwrist 9.24222 0 0
lhand -8.84654 -23.0755 0.0873266
lfingers 7.12502 -0 0
lthumb 17.0903 6.14114 0.0687167
rclavicle -2.54444e-14 2.3059e-14 0
rhumerus -46.6655 7.51546 -82.6479
rradius 33.9345 -0 0
rwrist -18.385 0 0
rhand -29.4126 -24.0171 -0.00705689
rfingers 7.12502 -0 0
rthumb -2.75017 -53.9784 -0.00684551
134
root 8.97699 16.1743 -18.5047 5.97135 7.03554 3.80706
lfemur 11.3222 2.24022 -24.1381
ltibia 13.8274 -0 0
lfoot -11.2437 3.18256 0.364618
ltoes -8.11802 0 0
rfemur -38.3798 9.33222 9.89014
rtibia 26.9408 -0 0
rfoot -21.5201 -9.79457 0.251596
rtoes -19.9224 0 0
lowerback -7.48083 -3.2112 -4.93584
upperback -1.29894 -3.95315 2.44215
thorax 3.38248 -2.04403 4.86176
lowerneck -19.3234 -5.82368 -13.5832
upperneck 19.6123 -6.90869 11.9358
head 10.4006 -2.87791 5.53099
lclavicle -2.54444e-14 2.3059e-14 0
lhumerus -33.4927 -22.9351 97.0237
lradius 37.2853 -0 0
lwrist 9.08939 0 0
lhand -8.59599 -22.9369 0.0940017
lfingers 7.12502 -0 0
lthumb 17.3311 6.25465 0.0739689
rclavicle -2.54444e-14 2.3059e-14 0
rhumerus -46.6192 7.5817 -82.6172
rradius 33.9654 -0 0
rwrist -18.4047 0 0
rhand -29.3784 -24.0992 -0.007596
rfingers 7.12502 -0 0
rthumb -2.71715 -54.0608 -0.00736847
135
root 8.95255 16.1903 -18.3522 6.02597 7.10571 3.6484
lfemur 10.6854 2.37836 -23.7946
ltibia 15.2101 -0 0
lfoot -10.8249 3.50427 0.388196
ltoes -8.28985 0 0
rfemur -37.9834 9.11826 10.379
rtibia 27.0284 -0 0
rfoot -21.2494 -9.45123 0.267854
rtoes -19.7546 0 0
lowerback -7.38932 -3.15591 -4.78432
upperback -1.31069 -3.89604 2.47608
thorax 3.3065 -2.01224 4.82118
lowerneck -19.3019 -5.86861 -13.6147
upperneck 19.4521 -6.97312 12.0219
head 10.355 -2.90028 5.55435
lclavicle -2.54444e-14 2.3059e-14 0
lhumerus -33.8922 -22.6072 97.0648
lradius 36.9418 -0 0
lwrist 8.93656 0 0
lhand -8.34543 -22.7982 0.10007
lfingers 7.12502 -0 0
lthumb 17.572 6.36818 0.0787439
rclavicle -2.54444e-14 2.3059e-14 0
rhumerus -46.5729 7.64792 -82.5865
rradius 33.9963 -0 0
rwrist -18.4244 0 0
rhand -29.3442 -24.1813 -0.00808609
rfingers 7.12502 -0 0
rthumb -2.68413 -54.1433 -0.00784388
136
root 8.92812 16.2062 -18.1996 6.08039 7.17603 3.48978
lfemur 10.0493 2.5203 -23.4525
ltibia 16.5929 -0 0
lfoot -10.406 3.82613 0.409423
ltoes -8.46167 0 0
rfemur -37.589 8.90097 10.8661
rtibia 27.1161 -0 0
rfoot -20.9785 -9.10783 0.282489
rtoes -19.5869 0 0
lowerback -7.29766 -3.10087 -4.63272
upperback -1.32241 -3.83893 2.50999
thorax 3.23049 -1.98051 4.78056
lowerneck -19.2803 -5.91352 -13.6462
upperneck 19.2918 -7.03731 12.1082
head 10.3093 -2.92263 5.57772
lclavicle -2.54444e-14 2.3059e-14 0
lhumerus -34.2906 -22.279 97.1034
lradius 36.5983 -0 0
lwrist 8.78373 0 0
lhand -8.09486 -22.6595 0.105533
lfingers 7.12502 -0 0
lthumb 17.8128 6.48173 0.0830417
rclavicle -2.54444e-14 2.3059e-14 0
rhumerus -46.5266 7.71411 -82.5558
rradius 34.0272 -0 0
rwrist -18.4442 0 0
rhand -29.3101 -24.2634 -0.00852718
rfingers 7.12502 -0 0
rthumb -2.65111 -54.2258 -0.00827176
137
root 8.90369 16.2222 -18.047 6.13463 7.2465 3.3312
lfemur 9.41398 2.66603 -23.1121
ltibia 17.9756 -0 0
lfoot -9.98705 4.14815 0.428296
ltoes -8.6335 0 0
rfemur -37.1968 8.68039 11.3514
rtibia 27.2038 -0 0
rfoot -20.7075 -8.76435 0.2955
rtoes -19.4192 0 0
lowerback -7.20586 -3.04608 -4.48104
upperback -1.33409 -3.78182 2.5439
thorax 3.15447 -1.94883 4.7399
lowerneck -19.2588 -5.95842 -13.6778
upperneck 19.1314 -7.10126 12.1946
head 10.2637 -2.94497 5.60112
lclavicle -2.54444e-14 2.3059e-14 0
lhumerus -34.6877 -21.9507 97.1394
lradius 36.2549 -0 0
lwrist 8.63089 0 0
lhand -7.84427 -22.5208 0.110389
lfingers 7.12502 -0 0
lthumb 18.0536 6.59529 0.0868622
rclavicle -2.54444e-14 2.3059e-14 0
rhumerus -46.4802 7.78028 -82.5249
rradius 34.0581 -0 0
rwrist -18.4639 0 0
rhand -29.2759 -24.3455 -0.00891927
rfingers 7.12502 -0 0
rthumb -2.61808 -54.3083 -0.0086521
138
root 8.87926 16.2382 -17.8945 6.18868 7.31711 3.17267
lfemur 8.77947 2.81552 -22.7732
ltibia 19.3583 -0 0
lfoot -9.56795 4.4703 0.444813
ltoes -8.80532 0 0
rfemur -36.8068 8.45654 11.8349
rtibia 27.2915 -0 0
rfoot -20.4365 -8.42082 0.306886
rtoes -19.2514 0 0
lowerback -7.11393 -2.99152 -4.32928
upperback -1.34574 -3.72469 2.57779
thorax 3.07842 -1.9172 4.6992
lowerneck -19.2372 -6.00331 -13.7094
upperneck 18.9709 -7.16497 12.2813
head 10.2181 -2.96728 5.62453
lclavicle -2.54444e-14 2.3059e-14 0
lhumerus -35.0838 -21.622 97.1728
lradius 35.9114 -0 0
lwrist 8.47806 0 0
lhand -7.59368 -22.3821 0.114638
lfingers 7.12502 -0 0
lthumb 18.2944 6.70887 0.0902053
rclavicle -2.54444e-14 2.3059e-14 0
rhumerus -46.4338 7.84642 -82.4941
rradius 34.089 -0 0
rwrist -18.4836 0 0
rhand -29.2417 -24.4277 -0.00926234
rfingers 7.12502 -0 0
rthumb -2.58506 -54.3908 -0.0089849
139
root 8.85483 16.2542 -17.7419 6.24253 7.38788 3.01418
lfemur 8.14579 2.96874 -22.436
ltibia 20.7411 -0 0
lfoot -9.14876 4.79255 0.458973
ltoes -8.97715 0 0
rfemur -36.4188 8.22945 12.3165
rtibia 27.3792 -0 0
rfoot -20.1654 -8.07724 0.316647
rtoes -19.0837 0 0
lowerback -7.02185 -2.93721 -4.17744
upperback -1.35735 -3.66756 2.61166
thorax 3.00236 -1.88563 4.65845
lowerneck -19.2156 -6.04818 -13.741
upperneck 18.8102 -7.22843 12.3682
head 10.1724 -2.98958 5.64796
lclavicle -2.54444e-14 2.3059e-14 0
lhumerus -35.4787 -21.2932 97.2038
lradius 35.5679 -0 0
lwrist 8.32523 0 0
lhand -7.34307 -22.2433 0.11828
lfingers 7.12502 -0 0
lthumb 18.5353 6.82246 0.093071
rclavicle -2.54444e-14 2.3059e-14 0
rhumerus -46.3873 7.91254 -82.4631
rradius 34.1199 -0 0
rwrist -18.5034 0 0
rhand -29.2075 -24.5098 -0.00955641
rfingers 7.12502 -0 0
rthumb -2.55204 -54.4733 -0.00927016
140
root 8.8304 16.2701 -17.5893 6.29621 7.45879 2.85573
lfemur 7.51292 3.12567 -22.1004
ltibia 22.1238 -0 0
lfoot -8.72951 5.11491 0.470775
ltoes -9.14897 0 0
rfemur -36.0331 7.99915 12.7963
rtibia 27.4669 -0 0
rfoot -19.8942 -7.73361 0.324782
rtoes -18.916 0 0
lowerback -6.92963 -2.88315 -4.02552
upperback -1.36893 -3.61042 2.64552
thorax 2.92627 -1.85411 4.61767
lowerneck -19.194 -6.09305 -13.7726
upperneck 18.6495 -7.29166 12.4552
head 10.1268 -3.01186 5.67141
lclavicle -2.54444e-14 2.3059e-14 0
lhumerus -35.8726 -20.9642 97.2323
lradius 35.2245 -0 0
lwrist 8.1724 0 0
lhand -7.09245 -22.1046 0.121315
lfingers 7.12502 -0 0
lthumb 18.7761 6.93607 0.0954592
rclavicle -2.54444e-14 2.3059e-14 0
rhumerus -46.3408 7.97863 -82.4321
rradius 34.1507 -0 0
rwrist -18.5231 0 0
rhand -29.1733 -24.5919 -0.00980146
rfingers 7.12502 -0 0
rthumb -2.51902 -54.5558 -0.00950787
141
root 8.80597 16.2861 -17.4368 6.34969 7.52985 2.69732
lfemur 6.88089 3.2863 -21.7666
ltibia 23.5066 -0 0
lfoot -8.31019 5.43734 0.480218
ltoes -9.3208 0 0
rfemur -35.6495 7.76566 13.2743
rtibia 27.5546 -0 0
rfoot -19.623 -7.38995 0.331291
rtoes -18.7482 0 0
lowerback -6.83728 -2.82932 -3.87352
upperback -1.38048 -3.55328 2.67937
thorax 2.85016 -1.82265 4.57684
lowerneck -19.1723 -6.1379 -13.8042
upperneck 18.4886 -7.35464 12.5424
head 10.0811 -3.03412 5.69488
lclavicle -2.54444e-14 2.3059e-14 0
lhumerus -36.2654 -20.635 97.2582
lradius 34.881 -0 0
lwrist 8.01957 0 0
lhand -6.84183 -21.9658 0.123744
lfingers 7.12502 -0 0
lthumb 19.017 7.04968 0.0973698
rclavicle -2.54444e-14 2.3059e-14 0
rhumerus -46.2942 8.0447 -82.4011
rradius 34.1816 -0 0
rwrist -18.5429 0 0
rhand -29.1391 -24.674 -0.00999751
rfingers 7.12502 -0 0
rthumb -2.48599 -54.6382 -0.00969804
142
root 8.78154 16.3021 -17.2842 6.40298 7.60105 2.53895
lfemur 6.24969 3.45059 -21.4345
ltibia 24.8893 -0 0
lfoot -7.89082 5.75983 0.487301
ltoes -9.49262 0 0
rfemur -35.2681 7.52902 13.7504
rtibia 27.6422 -0 0
rfoot -19.3518 -7.04627 0.336173
rtoes -18.5805 0 0
lowerback -6.74478 -2.77575 -3.72144
upperback -1.39199 -3.49613 2.7132
thorax 2.77403 -1.79124 4.53597
lowerneck -19.1506 -6.18274 -13.8359
upperneck 18.3276 -7.41738 12.6299
head 10.0354 -3.05637 5.71836
lclavicle -2.54444e-14 2.3059e-14 0
lhumerus -36.6573 -20.3057 97.2818
lradius 34.5376 -0 0
lwrist 7.86674 0 0
lhand -6.59121 -21.827 0.125565
lfingers 7.12502 -0 0
lthumb 19.2578 7.1633 0.0988027
rclavicle -2.54444e-14 2.3059e-14 0
rhumerus -46.2476 8.11075 -82.37
rradius 34.2125 -0 0
rwrist -18.5626 0 0
rhand -29.1049 -24.7561 -0.0101445
rfingers 7.12502 -0 0
rthumb -2.45297 -54.7207 -0.00984067
